<svg width="16" height="16" viewBox="0 0 16 16" fill="none" xmlns="http://www.w3.org/2000/svg">
<g clip-path="url(#clip0_1_42)">
<path d="M13.1157 0.615356H2.88375C2.08868 0.615356 1.44144 1.26259 1.44144 2.05766V10.8137H1.23111C0.890963 10.8137 0.615723 11.0889 0.615723 11.4291C0.615723 11.7692 0.890963 12.0444 1.23111 12.0444C1.30442 12.0444 2.7855 12.0444 2.70632 12.0444L1.67341 14.533C1.59469 14.7229 1.61572 14.9399 1.72991 15.1111C1.84409 15.2818 2.0364 15.3846 2.24192 15.3846H4.68483C4.93363 15.3846 5.15779 15.2349 5.25334 15.0054L6.48231 12.0444H9.51717L10.7467 15.0054C10.8423 15.2349 11.0664 15.3846 11.3152 15.3846H13.7582C13.9637 15.3846 14.156 15.2818 14.2702 15.1111C14.3844 14.9399 14.4054 14.7229 14.3267 14.533L13.2933 12.0444C13.4303 12.0444 14.8482 12.0444 14.769 12.0444C15.1091 12.0444 15.3844 11.7692 15.3844 11.4291C15.3844 11.0889 15.1091 10.8137 14.769 10.8137H14.558V2.05766C14.558 1.26259 13.9108 0.615356 13.1157 0.615356ZM2.88375 1.84613H13.1157C13.2323 1.84613 13.3273 1.94108 13.3273 2.05766V9.03934L11.3152 5.393C11.2173 5.21632 11.0394 5.09913 10.8387 5.0781C10.6386 5.06067 10.4402 5.13639 10.3086 5.29024L7.75695 8.2692L5.67281 6.76019C5.40358 6.56427 5.02979 6.61896 4.82666 6.87978L2.67221 9.64045V2.05766C2.67221 1.94108 2.76716 1.84613 2.88375 1.84613ZM3.31765 10.8137L5.43183 8.10514L7.49433 9.59853C7.75394 9.78663 8.11452 9.74336 8.32305 9.50057L10.6662 6.765L12.9 10.8137C7.56141 10.8137 8.63772 10.8137 3.31765 10.8137ZM4.27378 14.1538H3.1638L4.0394 12.0444H5.14938L4.27378 14.1538ZM12.8363 14.1538H11.7263L10.8501 12.0444H11.9601L12.8363 14.1538Z" fill="#545469"/>
<path d="M7.17423 4.98646C7.62999 4.98646 7.99946 4.61699 7.99946 4.16123C7.99946 3.70547 7.62999 3.336 7.17423 3.336C6.71847 3.336 6.349 3.70547 6.349 4.16123C6.349 4.61699 6.71847 4.98646 7.17423 4.98646Z" fill="#545469"/>
</g>
<defs>
<clipPath id="clip0_1_42">
<rect width="16" height="16" fill="white"/>
</clipPath>
</defs>
</svg>
