<svg width="16" height="16" viewBox="0 0 16 16" fill="none" xmlns="http://www.w3.org/2000/svg">
<g clip-path="url(#clip0_1_42)">
<path d="M13.1157 0.615387H2.88375C2.08868 0.615387 1.44144 1.26262 1.44144 2.05769V10.8137H1.23111C0.890963 10.8137 0.615723 11.0889 0.615723 11.4291C0.615723 11.7692 0.890963 12.0445 1.23111 12.0445C1.30442 12.0445 2.7855 12.0445 2.70632 12.0445L1.67341 14.5331C1.59469 14.723 1.61572 14.9399 1.72991 15.1112C1.84409 15.2819 2.0364 15.3846 2.24192 15.3846H4.68483C4.93363 15.3846 5.15779 15.235 5.25334 15.0054L6.48231 12.0445H9.51717L10.7467 15.0054C10.8423 15.235 11.0664 15.3846 11.3152 15.3846H13.7582C13.9637 15.3846 14.156 15.2819 14.2702 15.1112C14.3844 14.9399 14.4054 14.723 14.3267 14.5331L13.2933 12.0445C13.4303 12.0445 14.8482 12.0445 14.769 12.0445C15.1091 12.0445 15.3844 11.7692 15.3844 11.4291C15.3844 11.0889 15.1091 10.8137 14.769 10.8137H14.558V2.05769C14.558 1.26262 13.9108 0.615387 13.1157 0.615387ZM2.88375 1.84616H13.1157C13.2323 1.84616 13.3273 1.94111 13.3273 2.05769V9.03937L11.3152 5.39303C11.2173 5.21635 11.0394 5.09916 10.8387 5.07813C10.6386 5.0607 10.4402 5.13642 10.3086 5.29027L7.75695 8.26923L5.67281 6.76022C5.40358 6.56431 5.02979 6.61899 4.82666 6.87981L2.67221 9.64048V2.05769C2.67221 1.94111 2.76716 1.84616 2.88375 1.84616ZM3.31765 10.8137L5.43183 8.10517L7.49433 9.59856C7.75394 9.78666 8.11452 9.74339 8.32305 9.5006L10.6662 6.76503L12.9 10.8137C7.56141 10.8137 8.63772 10.8137 3.31765 10.8137ZM4.27378 14.1538H3.1638L4.0394 12.0445H5.14938L4.27378 14.1538ZM12.8363 14.1538H11.7263L10.8501 12.0445H11.9601L12.8363 14.1538Z" fill="#545469"/>
<path d="M7.17423 4.98646C7.62999 4.98646 7.99946 4.61699 7.99946 4.16123C7.99946 3.70547 7.62999 3.336 7.17423 3.336C6.71847 3.336 6.349 3.70547 6.349 4.16123C6.349 4.61699 6.71847 4.98646 7.17423 4.98646Z" fill="#545469"/>
</g>
<defs>
<clipPath id="clip0_1_42">
<rect width="16" height="16" fill="white"/>
</clipPath>
</defs>
</svg>
