<svg width="16" height="16" viewBox="0 0 16 16" fill="none" xmlns="http://www.w3.org/2000/svg">
<path d="M12.3142 15.1666H9.64758C8.03425 15.1666 7.14758 14.28 7.14758 12.6666V3.33331C7.14758 1.71998 8.03425 0.833313 9.64758 0.833313H12.3142C13.9275 0.833313 14.8142 1.71998 14.8142 3.33331V12.6666C14.8142 14.28 13.9209 15.1666 12.3142 15.1666ZM9.64758 1.83331C8.59425 1.83331 8.14758 2.27998 8.14758 3.33331V12.6666C8.14758 13.72 8.59425 14.1666 9.64758 14.1666H12.3142C13.3675 14.1666 13.8142 13.72 13.8142 12.6666V3.33331C13.8142 2.27998 13.3675 1.83331 12.3142 1.83331H9.64758Z" fill="#545469"/>
<path d="M10.9809 4.5H7.64758C7.37425 4.5 7.14758 4.27333 7.14758 4C7.14758 3.72667 7.37425 3.5 7.64758 3.5H10.9809C11.2542 3.5 11.4809 3.72667 11.4809 4C11.4809 4.27333 11.2542 4.5 10.9809 4.5Z" fill="#545469"/>
<path d="M10.3142 12.5H7.64758C7.37425 12.5 7.14758 12.2733 7.14758 12C7.14758 11.7267 7.37425 11.5 7.64758 11.5H10.3142C10.5876 11.5 10.8142 11.7267 10.8142 12C10.8142 12.2733 10.5876 12.5 10.3142 12.5Z" fill="#545469"/>
<path d="M10.9807 9.83332C10.9741 9.83332 10.9741 9.83332 10.9807 9.83332L7.64082 9.79999C7.36748 9.79999 7.14082 9.57332 7.14748 9.29332C7.14748 9.01999 7.37415 8.79999 7.64748 8.79999H7.65408L10.9874 8.83332C11.2607 8.83332 11.4874 9.05999 11.4807 9.33999C11.4741 9.61332 11.2541 9.83332 10.9807 9.83332Z" fill="#545469"/>
<path d="M9.64758 7.16663H7.64758C7.37425 7.16663 7.14758 6.93996 7.14758 6.66663C7.14758 6.39329 7.37425 6.16663 7.64758 6.16663H9.64758C9.92092 6.16663 10.1476 6.39329 10.1476 6.66663C10.1476 6.93996 9.92092 7.16663 9.64758 7.16663Z" fill="#545469"/>
<path d="M3.66083 15.1466C3.05417 15.1466 2.48083 14.7733 2.0875 14.12L1.54083 13.2133C1.34083 12.88 1.1875 12.3333 1.1875 11.9466V3.29998C1.1875 1.93998 2.29417 0.833313 3.65417 0.833313C5.01417 0.833313 6.12083 1.93998 6.12083 3.29998V11.94C6.12083 12.3266 5.9675 12.8733 5.7675 13.2066L5.22083 14.1133C4.84083 14.7733 4.2675 15.1466 3.66083 15.1466ZM3.66083 1.83331C2.85417 1.83331 2.19417 2.49331 2.19417 3.29998V11.94C2.19417 12.1466 2.29417 12.5133 2.40083 12.6933L2.9475 13.6C3.15417 13.9466 3.41417 14.14 3.66083 14.14C3.9075 14.14 4.1675 13.94 4.37417 13.6L4.92083 12.6933C5.0275 12.5133 5.1275 12.1466 5.1275 11.94V3.29998C5.1275 2.49331 4.4675 1.83331 3.66083 1.83331Z" fill="#545469"/>
<path d="M5.6275 5.16663H1.6875C1.41417 5.16663 1.1875 4.93996 1.1875 4.66663C1.1875 4.39329 1.41417 4.16663 1.6875 4.16663H5.6275C5.90083 4.16663 6.1275 4.39329 6.1275 4.66663C6.1275 4.93996 5.90083 5.16663 5.6275 5.16663Z" fill="#545469"/>
</svg>
