<svg width="16" height="16" viewBox="0 0 16 16" fill="none" xmlns="http://www.w3.org/2000/svg">
<path d="M12.3142 15.1667H9.64758C8.03425 15.1667 7.14758 14.28 7.14758 12.6667V3.33333C7.14758 1.72 8.03425 0.833332 9.64758 0.833332H12.3142C13.9275 0.833332 14.8142 1.72 14.8142 3.33333V12.6667C14.8142 14.28 13.9209 15.1667 12.3142 15.1667ZM9.64758 1.83333C8.59425 1.83333 8.14758 2.28 8.14758 3.33333V12.6667C8.14758 13.72 8.59425 14.1667 9.64758 14.1667H12.3142C13.3675 14.1667 13.8142 13.72 13.8142 12.6667V3.33333C13.8142 2.28 13.3675 1.83333 12.3142 1.83333H9.64758Z" fill="#545469"/>
<path d="M10.9809 4.5H7.64758C7.37425 4.5 7.14758 4.27333 7.14758 4C7.14758 3.72667 7.37425 3.5 7.64758 3.5H10.9809C11.2542 3.5 11.4809 3.72667 11.4809 4C11.4809 4.27333 11.2542 4.5 10.9809 4.5Z" fill="#545469"/>
<path d="M10.3142 12.5H7.64758C7.37425 12.5 7.14758 12.2733 7.14758 12C7.14758 11.7267 7.37425 11.5 7.64758 11.5H10.3142C10.5876 11.5 10.8142 11.7267 10.8142 12C10.8142 12.2733 10.5876 12.5 10.3142 12.5Z" fill="#545469"/>
<path d="M10.9807 9.83333C10.9741 9.83333 10.9741 9.83333 10.9807 9.83333L7.64082 9.8C7.36748 9.8 7.14082 9.57333 7.14748 9.29333C7.14748 9.02 7.37415 8.8 7.64748 8.8H7.65408L10.9874 8.83333C11.2607 8.83333 11.4874 9.06 11.4807 9.34C11.4741 9.61333 11.2541 9.83333 10.9807 9.83333Z" fill="#545469"/>
<path d="M9.64758 7.16666H7.64758C7.37425 7.16666 7.14758 6.94 7.14758 6.66666C7.14758 6.39333 7.37425 6.16666 7.64758 6.16666H9.64758C9.92092 6.16666 10.1476 6.39333 10.1476 6.66666C10.1476 6.94 9.92092 7.16666 9.64758 7.16666Z" fill="#545469"/>
<path d="M3.66083 15.1467C3.05417 15.1467 2.48083 14.7733 2.0875 14.12L1.54083 13.2133C1.34083 12.88 1.1875 12.3333 1.1875 11.9467V3.3C1.1875 1.94 2.29417 0.833332 3.65417 0.833332C5.01417 0.833332 6.12083 1.94 6.12083 3.3V11.94C6.12083 12.3267 5.9675 12.8733 5.7675 13.2067L5.22083 14.1133C4.84083 14.7733 4.2675 15.1467 3.66083 15.1467ZM3.66083 1.83333C2.85417 1.83333 2.19417 2.49333 2.19417 3.3V11.94C2.19417 12.1467 2.29417 12.5133 2.40083 12.6933L2.9475 13.6C3.15417 13.9467 3.41417 14.14 3.66083 14.14C3.9075 14.14 4.1675 13.94 4.37417 13.6L4.92083 12.6933C5.0275 12.5133 5.1275 12.1467 5.1275 11.94V3.3C5.1275 2.49333 4.4675 1.83333 3.66083 1.83333Z" fill="#545469"/>
<path d="M5.6275 5.16666H1.6875C1.41417 5.16666 1.1875 4.94 1.1875 4.66666C1.1875 4.39333 1.41417 4.16666 1.6875 4.16666H5.6275C5.90083 4.16666 6.1275 4.39333 6.1275 4.66666C6.1275 4.94 5.90083 5.16666 5.6275 5.16666Z" fill="#545469"/>
</svg>
