<svg width="16" height="16" viewBox="0 0 16 16" fill="none" xmlns="http://www.w3.org/2000/svg">
<path d="M3.86592 15.5999C3.74732 15.5999 3.62732 15.5905 3.50678 15.571C2.36334 15.3858 1.53795 14.3362 1.62764 13.1814L2.02271 8.09517C2.10975 6.97502 3.05795 6.0976 4.18146 6.0976H11.8187C12.9422 6.0976 13.8904 6.97502 13.9774 8.0951L14.3725 13.1814C14.4622 14.3362 13.6368 15.3858 12.4933 15.571C11.3239 15.7608 10.2044 15.0031 9.94467 13.8472L9.50232 11.8782C9.4999 11.8675 9.49061 11.8601 9.47967 11.8601H6.52045C6.50951 11.8601 6.50021 11.8675 6.49787 11.8781L6.05545 13.8472C5.82256 14.8839 4.89787 15.5999 3.86592 15.5999ZM12.3654 14.7813C13.1013 14.6621 13.6326 13.9866 13.5748 13.2433L13.1797 8.15705C13.1249 7.4508 12.527 6.8976 11.8187 6.8976H4.18146C3.47311 6.8976 2.87521 7.4508 2.82037 8.15713L2.42529 13.2434C2.36756 13.9866 2.89873 14.6621 3.63459 14.7813C4.38709 14.9029 5.10779 14.4159 5.27498 13.6719L5.71732 11.7029C5.80225 11.3245 6.13248 11.0601 6.52045 11.0601H9.47967C9.86764 11.0601 10.1979 11.3245 10.2829 11.703L10.7252 13.6719C10.8923 14.4158 11.613 14.9035 12.3654 14.7813Z" fill="#545469"/>
<path d="M11.0799 9.30245C11.1999 9.42245 11.2671 9.58245 11.2671 9.75202C11.2671 9.92323 11.1999 10.0832 11.0799 10.2032C10.9551 10.328 10.7919 10.3888 10.6287 10.3888C10.4655 10.3888 10.3023 10.328 10.1791 10.2032C10.0575 10.0832 9.99194 9.92323 9.99194 9.75202C9.99194 9.58245 10.0575 9.42245 10.1791 9.30245C10.4191 9.06081 10.8383 9.06081 11.0799 9.30245Z" fill="#545469"/>
<path d="M12.4384 8.58078C12.4384 8.75039 12.3728 8.91039 12.2512 9.03039C12.1312 9.15039 11.9712 9.21758 11.8016 9.21758C11.6304 9.21758 11.4704 9.15199 11.3504 9.03039C11.2304 8.91039 11.1648 8.75039 11.1648 8.58078C11.1648 8.40961 11.2304 8.24961 11.3504 8.12961C11.6 7.8816 12.0032 7.8816 12.2512 8.12961C12.3728 8.24961 12.4384 8.40961 12.4384 8.58078Z" fill="#545469"/>
<path d="M4.85789 10.4636C4.63695 10.4636 4.45789 10.2846 4.45789 10.0636V8.26932C4.45789 8.04839 4.63695 7.86932 4.85789 7.86932C5.07882 7.86932 5.25789 8.04839 5.25789 8.26932V10.0636C5.25789 10.2846 5.07882 10.4636 4.85789 10.4636Z" fill="#545469"/>
<path d="M5.75497 9.56648H3.96067C3.73973 9.56648 3.56067 9.38742 3.56067 9.16648C3.56067 8.94554 3.73973 8.76648 3.96067 8.76648H5.75497C5.9759 8.76648 6.15497 8.94554 6.15497 9.16648C6.15497 9.38742 5.9759 9.56648 5.75497 9.56648Z" fill="#545469"/>
<path d="M7.99998 6.8976C7.77904 6.8976 7.59998 6.71854 7.59998 6.4976V5.69729C7.59998 5.07995 8.10216 4.57776 8.71951 4.57776H9.01013C9.1863 4.57776 9.32966 4.4344 9.32966 4.25823C9.32966 4.07877 9.1863 3.93549 9.01013 3.93549H7.06716C6.44982 3.93549 5.94763 3.43331 5.94763 2.81596C5.94763 2.19862 6.44982 1.69643 7.06716 1.69643C7.34115 1.69643 7.56412 1.47346 7.56412 1.19948V0.800024C7.56412 0.579087 7.74318 0.400024 7.96412 0.400024C8.18505 0.400024 8.36412 0.579087 8.36412 0.800024V1.19948C8.36412 1.91463 7.78232 2.49643 7.06716 2.49643C6.89099 2.49643 6.74763 2.63979 6.74763 2.81596C6.74763 2.99213 6.89099 3.13549 7.06716 3.13549H9.01013C9.62748 3.13549 10.1297 3.63768 10.1297 4.25495C10.1297 4.87557 9.62748 5.37776 9.01013 5.37776H8.71951C8.54333 5.37776 8.39998 5.52112 8.39998 5.69729V6.4976C8.39998 6.71854 8.22091 6.8976 7.99998 6.8976Z" fill="#545469"/>
</svg>
