<svg width="16" height="16" viewBox="0 0 16 16" fill="none" xmlns="http://www.w3.org/2000/svg">
<g clip-path="url(#clip0_1_37)">
<path d="M13.6449 8.435C13.5499 8.29 13.4499 8.145 13.3449 8C13.2449 7.86 13.1449 7.715 13.0349 7.575C12.9349 7.44 12.8249 7.3 12.7144 7.16C12.6094 7.025 12.4994 6.89 12.3844 6.755C11.9244 6.195 11.4244 5.645 10.8899 5.11C10.3549 4.575 9.80495 4.075 9.25445 3.62C9.11945 3.505 8.97945 3.395 8.83945 3.29C8.91145 3.242 8.97995 3.198 9.04995 3.1515C9.30945 3.3655 9.63745 3.5 9.99995 3.5C10.8269 3.5 11.4999 2.827 11.4999 2C11.4999 1.9525 11.4899 1.9075 11.4859 1.861C12.1064 1.628 12.6749 1.5 13.1599 1.5C13.6094 1.5 13.9499 1.61 14.1699 1.83C14.6749 2.34 14.5954 3.515 13.9504 4.98C13.7004 5.545 13.3849 6.13 13.0049 6.72C13.2299 7 13.4449 7.285 13.6449 7.565C14.1449 6.825 14.5549 6.09 14.8649 5.385C15.7049 3.47 15.7094 1.96 14.8749 1.125C14.4599 0.71 13.8849 0.5 13.1599 0.5C12.5454 0.5 11.8359 0.6605 11.0709 0.9535C10.7989 0.6745 10.4199 0.5 9.99995 0.5C9.17295 0.5 8.49995 1.173 8.49995 2C8.49995 2.101 8.51045 2.199 8.52995 2.2945C8.49845 2.3155 8.46695 2.3335 8.43545 2.355C8.28995 2.45 8.14495 2.55 7.99995 2.655C7.85495 2.55 7.70995 2.45 7.56495 2.355C5.80495 1.18 4.11995 0.5 2.83995 0.5C2.11495 0.5 1.53995 0.71 1.12495 1.125C-0.0600538 2.305 0.489946 4.8 2.33995 7.56C2.43995 7.705 2.53995 7.855 2.64995 8C2.54495 8.15 2.43995 8.295 2.34495 8.445C0.484946 11.205 -0.0550538 13.7 1.12495 14.875C1.53995 15.29 2.11495 15.5 2.83995 15.5C4.11995 15.5 5.80495 14.82 7.56495 13.645C7.70995 13.55 7.85495 13.45 7.99995 13.345C8.14495 13.45 8.28995 13.5495 8.43495 13.645C10.1949 14.82 11.8799 15.5 13.1599 15.5C13.8844 15.5 14.4599 15.29 14.8749 14.875C15.7099 14.04 15.7049 12.53 14.8649 10.615C14.5549 9.91 14.1449 9.175 13.6449 8.435ZM1.82995 1.83C2.04995 1.61 2.38995 1.5 2.83995 1.5C3.85995 1.5 5.24495 2.05 6.71995 2.995C6.86495 3.09 7.01495 3.185 7.15995 3.29C7.02495 3.395 6.88495 3.51 6.74995 3.62C6.19495 4.075 5.64495 4.575 5.10995 5.11C4.56495 5.655 4.06495 6.205 3.60995 6.75C3.49495 6.885 3.38495 7.02 3.27995 7.155C3.17495 7.005 3.07995 6.855 2.98995 6.71C1.53495 4.43 1.13495 2.53 1.82995 1.83ZM6.71995 13C5.23995 13.95 3.85995 14.5 2.83995 14.5C2.38995 14.5 2.04995 14.39 1.82995 14.17C1.13495 13.4705 1.53995 11.57 2.98995 9.29C3.07995 9.145 3.17995 8.995 3.27995 8.845C3.37495 8.705 3.47495 8.5645 3.57995 8.4195C3.57995 8.4195 3.57995 8.4145 3.58495 8.4095C3.67995 8.2745 3.78495 8.1345 3.88995 7.9995C3.99495 7.8645 4.09995 7.7295 4.21495 7.5945C4.68495 7.0095 5.21995 6.4095 5.81495 5.8145C6.39495 5.2345 6.99495 4.6995 7.59495 4.2195C7.72995 4.11 7.86495 4.005 7.99995 3.9C8.13495 4 8.26995 4.105 8.40495 4.22C9.00495 4.7 9.60495 5.235 10.1849 5.815C10.7649 6.395 11.2994 6.99 11.7849 7.59C11.8949 7.725 12.0044 7.865 12.1049 8C11.9999 8.135 11.8949 8.275 11.7849 8.41C11.3049 9.01 10.7649 9.605 10.1849 10.185C9.60495 10.765 9.00495 11.2995 8.40495 11.7795C8.26995 11.89 8.13495 11.995 7.99995 12.1C7.86495 12 7.72995 11.895 7.59495 11.7795C7.52195 11.721 7.44895 11.654 7.37595 11.594C7.45495 11.412 7.49995 11.2115 7.49995 11C7.49995 10.173 6.82695 9.5 5.99995 9.5C5.75595 9.5 5.52845 9.564 5.32445 9.668C4.92645 9.244 4.54745 8.821 4.20995 8.405C4.10495 8.545 3.99995 8.685 3.90995 8.82C3.90995 8.82 3.90495 8.82 3.90495 8.8255C3.79995 8.965 3.69995 9.11 3.60995 9.25C3.92595 9.6325 4.27195 10.0115 4.63195 10.391C4.54845 10.5775 4.49995 10.7825 4.49995 11C4.49995 11.827 5.17295 12.5 5.99995 12.5C6.24795 12.5 6.47795 12.434 6.68445 12.327C6.70495 12.3435 6.72495 12.363 6.74545 12.3795C6.88045 12.4945 7.02045 12.6045 7.16045 12.7095C7.00995 12.81 6.86495 12.91 6.71995 13ZM14.1699 14.17C13.9499 14.39 13.6099 14.5 13.1599 14.5C12.1399 14.5 10.7544 13.95 9.27945 13.005C9.13445 12.9105 8.98445 12.815 8.83945 12.71C8.97495 12.605 9.11495 12.4905 9.24945 12.38C9.80445 11.925 10.3544 11.425 10.8894 10.8905C11.4239 10.3555 11.9294 9.8055 12.3839 9.2455C12.4989 9.11 12.6089 8.9755 12.7139 8.84C12.8139 8.985 12.9139 9.135 13.0039 9.28C13.3839 9.8705 13.6994 10.4555 13.9494 11.02C14.5949 12.485 14.6749 13.66 14.1699 14.17Z" fill="#545469"/>
<path d="M8 9.5C8.827 9.5 9.5 8.827 9.5 8C9.5 7.173 8.827 6.5 8 6.5C7.173 6.5 6.5 7.173 6.5 8C6.5 8.827 7.173 9.5 8 9.5ZM8 7.5C8.2755 7.5 8.5 7.7245 8.5 8C8.5 8.2755 8.2755 8.5 8 8.5C7.7245 8.5 7.5 8.2755 7.5 8C7.5 7.7245 7.7245 7.5 8 7.5Z" fill="#545469"/>
</g>
<defs>
<clipPath id="clip0_1_37">
<rect width="16" height="16" fill="white"/>
</clipPath>
</defs>
</svg>
