<svg width="16" height="16" viewBox="0 0 16 16" fill="none" xmlns="http://www.w3.org/2000/svg">
<g clip-path="url(#clip0_1_46)">
<path d="M13.86 7.83C15.77 5.92 16.05 3.085 14.485 1.515C12.915 -0.0549995 10.085 0.225001 8.17 2.14C7.195 3.115 6.6 4.385 6.535 5.63L5.595 8.455L0.905 13.145C0.365 13.685 0.365 14.56 0.905 15.1C1.175 15.37 1.53 15.505 1.88 15.505C2.23 15.505 2.585 15.37 2.855 15.1L7.545 10.41L10.37 9.47C11.615 9.405 12.885 8.81 13.86 7.835V7.83ZM2.15 14.39C2 14.54 1.76 14.54 1.61 14.39C1.46 14.24 1.46 14 1.61 13.85L2.295 13.165L2.835 13.705L2.15 14.39ZM13.155 7.125C13.1 7.18 13.04 7.23 12.985 7.285L11.21 5.51L12.37 4.35L14.01 5.99C13.795 6.395 13.51 6.78 13.16 7.13L13.155 7.125ZM14.4 4.965L13.075 3.64L14.09 2.625C14.51 3.275 14.605 4.115 14.4 4.965ZM11.895 1.5C12.44 1.5 12.955 1.635 13.385 1.915L12.365 2.935L11.04 1.61C11.33 1.54 11.615 1.5 11.895 1.5ZM8.88 2.855C9.23 2.505 9.62 2.22 10.02 2.005L11.66 3.645L10.5 4.805L8.725 3.03C8.775 2.97 8.83 2.915 8.885 2.86L8.88 2.855ZM8.12 3.84L9.795 5.515L8.66 6.65L7.555 5.545C7.61 4.965 7.805 4.385 8.12 3.845V3.84ZM3.54 12.995L3 12.455L6.03 9.425L6.57 9.965L3.54 12.995ZM7.41 9.395L6.6 8.585L7.245 6.645L9.345 8.745L7.405 9.39L7.41 9.395ZM10.495 6.21L12.17 7.885C11.63 8.2 11.045 8.395 10.47 8.45L9.365 7.345L10.5 6.21H10.495Z" fill="#545469"/>
<path d="M12 9.5C10.345 9.5 9 10.845 9 12.5C9 14.155 10.345 15.5 12 15.5C13.655 15.5 15 14.155 15 12.5C15 10.845 13.655 9.5 12 9.5ZM10.37 11.35C10.615 11.685 10.75 12.085 10.75 12.5C10.75 12.915 10.61 13.315 10.37 13.65C10.14 13.325 10 12.93 10 12.5C10 12.07 10.14 11.675 10.37 11.35ZM11.14 14.3C11.535 13.785 11.75 13.155 11.75 12.5C11.75 11.845 11.53 11.22 11.14 10.7C11.4 10.575 11.69 10.5 12 10.5C12.31 10.5 12.6 10.575 12.86 10.7C12.465 11.215 12.25 11.845 12.25 12.5C12.25 13.155 12.47 13.78 12.86 14.3C12.6 14.425 12.31 14.5 12 14.5C11.69 14.5 11.4 14.425 11.14 14.3ZM13.63 13.655C13.385 13.32 13.25 12.92 13.25 12.505C13.25 12.09 13.39 11.69 13.63 11.355C13.86 11.68 14 12.075 14 12.505C14 12.935 13.86 13.33 13.63 13.655Z" fill="#545469"/>
</g>
<defs>
<clipPath id="clip0_1_46">
<rect width="16" height="16" fill="white"/>
</clipPath>
</defs>
</svg>
