<svg width="16" height="16" viewBox="0 0 16 16" fill="none" xmlns="http://www.w3.org/2000/svg">
<g clip-path="url(#clip0_470_117)">
<path d="M13.1157 0.615387H2.88369C2.08862 0.615387 1.44138 1.26262 1.44138 2.05769V10.8137H1.23105C0.890902 10.8137 0.615662 11.0889 0.615662 11.4291C0.615662 11.7692 0.890902 12.0445 1.23105 12.0445C1.30436 12.0445 2.78544 12.0445 2.70626 12.0445L1.67335 14.5331C1.59463 14.723 1.61566 14.9399 1.72984 15.1112C1.84403 15.2819 2.03633 15.3846 2.24186 15.3846H4.68477C4.93357 15.3846 5.15773 15.235 5.25328 15.0054L6.48225 12.0445H9.5171L10.7467 15.0054C10.8422 15.235 11.0664 15.3846 11.3152 15.3846H13.7581C13.9636 15.3846 14.1559 15.2819 14.2701 15.1112C14.3843 14.9399 14.4053 14.723 14.3266 14.5331L13.2932 12.0445C13.4302 12.0445 14.8481 12.0445 14.7689 12.0445C15.1091 12.0445 15.3843 11.7692 15.3843 11.4291C15.3843 11.0889 15.1091 10.8137 14.7689 10.8137H14.558V2.05769C14.558 1.26262 13.9107 0.615387 13.1157 0.615387ZM2.88369 1.84616H13.1157C13.2322 1.84616 13.3272 1.94111 13.3272 2.05769V9.03937L11.3152 5.39303C11.2172 5.21635 11.0393 5.09916 10.8386 5.07813C10.6385 5.0607 10.4402 5.13642 10.3086 5.29027L7.75689 8.26923L5.67275 6.76022C5.40352 6.56431 5.02972 6.61899 4.8266 6.87981L2.67215 9.64048V2.05769C2.67215 1.94111 2.7671 1.84616 2.88369 1.84616ZM3.31758 10.8137L5.43177 8.10517L7.49427 9.59856C7.75388 9.78666 8.11446 9.74339 8.32299 9.5006L10.6661 6.76503L12.8999 10.8137C7.56135 10.8137 8.63766 10.8137 3.31758 10.8137ZM4.27371 14.1538H3.16374L4.03934 12.0445H5.14932L4.27371 14.1538ZM12.8362 14.1538H11.7262L10.85 12.0445H11.96L12.8362 14.1538Z" fill="#545469"/>
<path d="M7.17411 4.98646C7.62987 4.98646 7.99934 4.61699 7.99934 4.16123C7.99934 3.70547 7.62987 3.336 7.17411 3.336C6.71835 3.336 6.34888 3.70547 6.34888 4.16123C6.34888 4.61699 6.71835 4.98646 7.17411 4.98646Z" fill="#545469"/>
</g>
<defs>
<clipPath id="clip0_470_117">
<rect width="16" height="16" fill="white"/>
</clipPath>
</defs>
</svg>
