<svg width="16" height="16" viewBox="0 0 16 16" fill="none" xmlns="http://www.w3.org/2000/svg">
<path d="M12.3141 15.1667H9.64752C8.03419 15.1667 7.14752 14.28 7.14752 12.6667V3.33333C7.14752 1.71999 8.03419 0.833328 9.64752 0.833328H12.3141C13.9275 0.833328 14.8141 1.71999 14.8141 3.33333V12.6667C14.8141 14.28 13.9208 15.1667 12.3141 15.1667ZM9.64752 1.83333C8.59419 1.83333 8.14752 2.27999 8.14752 3.33333V12.6667C8.14752 13.72 8.59419 14.1667 9.64752 14.1667H12.3141C13.3675 14.1667 13.8141 13.72 13.8141 12.6667V3.33333C13.8141 2.27999 13.3675 1.83333 12.3141 1.83333H9.64752Z" fill="#545469"/>
<path d="M10.9808 4.5H7.64752C7.37419 4.5 7.14752 4.27333 7.14752 4C7.14752 3.72667 7.37419 3.5 7.64752 3.5H10.9808C11.2541 3.5 11.4808 3.72667 11.4808 4C11.4808 4.27333 11.2541 4.5 10.9808 4.5Z" fill="#545469"/>
<path d="M10.3142 12.5H7.64752C7.37419 12.5 7.14752 12.2733 7.14752 12C7.14752 11.7267 7.37419 11.5 7.64752 11.5H10.3142C10.5875 11.5 10.8141 11.7267 10.8141 12C10.8141 12.2733 10.5875 12.5 10.3142 12.5Z" fill="#545469"/>
<path d="M10.9808 9.83332C10.9741 9.83332 10.9741 9.83332 10.9808 9.83332L7.64088 9.79999C7.36754 9.79999 7.14088 9.57332 7.14754 9.29332C7.14754 9.01999 7.37421 8.79999 7.64754 8.79999H7.65414L10.9875 8.83332C11.2608 8.83332 11.4875 9.05999 11.4808 9.33999C11.4741 9.61332 11.2541 9.83332 10.9808 9.83332Z" fill="#545469"/>
<path d="M9.64752 7.16666H7.64752C7.37419 7.16666 7.14752 6.93999 7.14752 6.66666C7.14752 6.39332 7.37419 6.16666 7.64752 6.16666H9.64752C9.92086 6.16666 10.1475 6.39332 10.1475 6.66666C10.1475 6.93999 9.92086 7.16666 9.64752 7.16666Z" fill="#545469"/>
<path d="M3.66083 15.1467C3.05417 15.1467 2.48083 14.7733 2.0875 14.12L1.54083 13.2133C1.34083 12.88 1.1875 12.3333 1.1875 11.9467V3.29999C1.1875 1.93999 2.29417 0.833328 3.65417 0.833328C5.01417 0.833328 6.12083 1.93999 6.12083 3.29999V11.94C6.12083 12.3267 5.9675 12.8733 5.7675 13.2067L5.22083 14.1133C4.84083 14.7733 4.2675 15.1467 3.66083 15.1467ZM3.66083 1.83333C2.85417 1.83333 2.19417 2.49333 2.19417 3.29999V11.94C2.19417 12.1467 2.29417 12.5133 2.40083 12.6933L2.9475 13.6C3.15417 13.9467 3.41417 14.14 3.66083 14.14C3.9075 14.14 4.1675 13.94 4.37417 13.6L4.92083 12.6933C5.0275 12.5133 5.1275 12.1467 5.1275 11.94V3.29999C5.1275 2.49333 4.4675 1.83333 3.66083 1.83333Z" fill="#545469"/>
<path d="M5.6275 5.16666H1.6875C1.41417 5.16666 1.1875 4.93999 1.1875 4.66666C1.1875 4.39332 1.41417 4.16666 1.6875 4.16666H5.6275C5.90083 4.16666 6.1275 4.39332 6.1275 4.66666C6.1275 4.93999 5.90083 5.16666 5.6275 5.16666Z" fill="#545469"/>
</svg>
