<svg width="16" height="16" viewBox="0 0 16 16" fill="none" xmlns="http://www.w3.org/2000/svg">
<path d="M3.86586 15.5999C3.74726 15.5999 3.62726 15.5905 3.50672 15.5709C2.36328 15.3858 1.53789 14.3362 1.62758 13.1814L2.02265 8.09514C2.10968 6.97499 3.05789 6.09756 4.1814 6.09756H11.8186C12.9421 6.09756 13.8903 6.97499 13.9773 8.09506L14.3724 13.1814C14.4621 14.3362 13.6367 15.3858 12.4933 15.5709C11.3238 15.7608 10.2043 15.003 9.94461 13.8472L9.50226 11.8782C9.49984 11.8675 9.49054 11.8601 9.47961 11.8601H6.52039C6.50945 11.8601 6.50015 11.8675 6.49781 11.8781L6.05539 13.8472C5.8225 14.8839 4.89781 15.5999 3.86586 15.5999ZM12.3654 14.7812C13.1012 14.6621 13.6325 13.9865 13.5748 13.2433L13.1797 8.15702C13.1248 7.45077 12.527 6.89756 11.8186 6.89756H4.1814C3.47304 6.89756 2.87515 7.45077 2.82031 8.1571L2.42523 13.2433C2.3675 13.9865 2.89867 14.6621 3.63453 14.7812C4.38703 14.9029 5.10773 14.4158 5.27492 13.6719L5.71726 11.7029C5.80218 11.3244 6.13242 11.0601 6.52039 11.0601H9.47961C9.86758 11.0601 10.1978 11.3244 10.2828 11.703L10.7252 13.6719C10.8923 14.4158 11.613 14.9035 12.3654 14.7812Z" fill="#545469"/>
<path d="M11.08 9.30242C11.2 9.42242 11.2672 9.58242 11.2672 9.75199C11.2672 9.9232 11.2 10.0832 11.08 10.2032C10.9552 10.328 10.792 10.3888 10.6288 10.3888C10.4656 10.3888 10.3024 10.328 10.1792 10.2032C10.0576 10.0832 9.992 9.9232 9.992 9.75199C9.992 9.58242 10.0576 9.42242 10.1792 9.30242C10.4192 9.06078 10.8384 9.06078 11.08 9.30242Z" fill="#545469"/>
<path d="M12.4384 8.58078C12.4384 8.75039 12.3728 8.91039 12.2512 9.03039C12.1312 9.15039 11.9712 9.21758 11.8016 9.21758C11.6304 9.21758 11.4704 9.15199 11.3504 9.03039C11.2304 8.91039 11.1648 8.75039 11.1648 8.58078C11.1648 8.40961 11.2304 8.24961 11.3504 8.12961C11.6 7.8816 12.0032 7.8816 12.2512 8.12961C12.3728 8.24961 12.4384 8.40961 12.4384 8.58078Z" fill="#545469"/>
<path d="M4.85789 10.4636C4.63695 10.4636 4.45789 10.2845 4.45789 10.0636V8.26929C4.45789 8.04836 4.63695 7.86929 4.85789 7.86929C5.07882 7.86929 5.25789 8.04836 5.25789 8.26929V10.0636C5.25789 10.2845 5.07882 10.4636 4.85789 10.4636Z" fill="#545469"/>
<path d="M5.75503 9.56648H3.96073C3.73979 9.56648 3.56073 9.38742 3.56073 9.16648C3.56073 8.94554 3.73979 8.76648 3.96073 8.76648H5.75503C5.97596 8.76648 6.15503 8.94554 6.15503 9.16648C6.15503 9.38742 5.97596 9.56648 5.75503 9.56648Z" fill="#545469"/>
<path d="M7.99998 6.89757C7.77904 6.89757 7.59998 6.71851 7.59998 6.49757V5.69726C7.59998 5.07992 8.10216 4.57773 8.71951 4.57773H9.01013C9.1863 4.57773 9.32966 4.43437 9.32966 4.2582C9.32966 4.07874 9.1863 3.93546 9.01013 3.93546H7.06716C6.44982 3.93546 5.94763 3.43327 5.94763 2.81593C5.94763 2.19859 6.44982 1.6964 7.06716 1.6964C7.34115 1.6964 7.56412 1.47343 7.56412 1.19945V0.799994C7.56412 0.579056 7.74318 0.399994 7.96412 0.399994C8.18505 0.399994 8.36412 0.579056 8.36412 0.799994V1.19945C8.36412 1.9146 7.78232 2.4964 7.06716 2.4964C6.89099 2.4964 6.74763 2.63976 6.74763 2.81593C6.74763 2.9921 6.89099 3.13546 7.06716 3.13546H9.01013C9.62748 3.13546 10.1297 3.63765 10.1297 4.25492C10.1297 4.87554 9.62748 5.37773 9.01013 5.37773H8.71951C8.54333 5.37773 8.39998 5.52109 8.39998 5.69726V6.49757C8.39998 6.71851 8.22091 6.89757 7.99998 6.89757Z" fill="#545469"/>
</svg>
