<svg width="16" height="16" viewBox="0 0 16 16" fill="none" xmlns="http://www.w3.org/2000/svg">
<g clip-path="url(#clip0_470_110)">
<path d="M13.645 8.435C13.55 8.29 13.45 8.145 13.345 8C13.245 7.86 13.145 7.715 13.035 7.575C12.935 7.44 12.825 7.3 12.7145 7.16C12.6095 7.025 12.4995 6.89 12.3845 6.755C11.9245 6.195 11.4245 5.645 10.89 5.11C10.355 4.575 9.80501 4.075 9.25451 3.62C9.11951 3.505 8.97951 3.395 8.83951 3.29C8.91151 3.242 8.98001 3.198 9.05001 3.1515C9.30951 3.3655 9.63751 3.5 10 3.5C10.827 3.5 11.5 2.827 11.5 2C11.5 1.9525 11.49 1.9075 11.486 1.861C12.1065 1.628 12.675 1.5 13.16 1.5C13.6095 1.5 13.95 1.61 14.17 1.83C14.675 2.34 14.5955 3.515 13.9505 4.98C13.7005 5.545 13.385 6.13 13.005 6.72C13.23 7 13.445 7.285 13.645 7.565C14.145 6.825 14.555 6.09 14.865 5.385C15.705 3.47 15.7095 1.96 14.875 1.125C14.46 0.71 13.885 0.5 13.16 0.5C12.5455 0.5 11.836 0.6605 11.071 0.9535C10.799 0.6745 10.42 0.5 10 0.5C9.17301 0.5 8.50001 1.173 8.50001 2C8.50001 2.101 8.51051 2.199 8.53001 2.2945C8.49851 2.3155 8.46701 2.3335 8.43551 2.355C8.29001 2.45 8.14501 2.55 8.00001 2.655C7.85501 2.55 7.71001 2.45 7.56501 2.355C5.80501 1.18 4.12001 0.5 2.84001 0.5C2.11501 0.5 1.54001 0.71 1.12501 1.125C-0.0599928 2.305 0.490007 4.8 2.34001 7.56C2.44001 7.705 2.54001 7.855 2.65001 8C2.54501 8.15 2.44001 8.295 2.34501 8.445C0.485007 11.205 -0.0549928 13.7 1.12501 14.875C1.54001 15.29 2.11501 15.5 2.84001 15.5C4.12001 15.5 5.80501 14.82 7.56501 13.645C7.71001 13.55 7.85501 13.45 8.00001 13.345C8.14501 13.45 8.29001 13.5495 8.43501 13.645C10.195 14.82 11.88 15.5 13.16 15.5C13.8845 15.5 14.46 15.29 14.875 14.875C15.71 14.04 15.705 12.53 14.865 10.615C14.555 9.91 14.145 9.175 13.645 8.435ZM1.83001 1.83C2.05001 1.61 2.39001 1.5 2.84001 1.5C3.86001 1.5 5.24501 2.05 6.72001 2.995C6.86501 3.09 7.01501 3.185 7.16001 3.29C7.02501 3.395 6.88501 3.51 6.75001 3.62C6.19501 4.075 5.64501 4.575 5.11001 5.11C4.56501 5.655 4.06501 6.205 3.61001 6.75C3.49501 6.885 3.38501 7.02 3.28001 7.155C3.17501 7.005 3.08001 6.855 2.99001 6.71C1.53501 4.43 1.13501 2.53 1.83001 1.83ZM6.72001 13C5.24001 13.95 3.86001 14.5 2.84001 14.5C2.39001 14.5 2.05001 14.39 1.83001 14.17C1.13501 13.4705 1.54001 11.57 2.99001 9.29C3.08001 9.145 3.18001 8.995 3.28001 8.845C3.37501 8.705 3.47501 8.5645 3.58001 8.4195C3.58001 8.4195 3.58001 8.4145 3.58501 8.4095C3.68001 8.2745 3.78501 8.1345 3.89001 7.9995C3.99501 7.8645 4.10001 7.7295 4.21501 7.5945C4.68501 7.0095 5.22001 6.4095 5.81501 5.8145C6.39501 5.2345 6.99501 4.6995 7.59501 4.2195C7.73001 4.11 7.86501 4.005 8.00001 3.9C8.13501 4 8.27001 4.105 8.40501 4.22C9.00501 4.7 9.60501 5.235 10.185 5.815C10.765 6.395 11.2995 6.99 11.785 7.59C11.895 7.725 12.0045 7.865 12.105 8C12 8.135 11.895 8.275 11.785 8.41C11.305 9.01 10.765 9.605 10.185 10.185C9.60501 10.765 9.00501 11.2995 8.40501 11.7795C8.27001 11.89 8.13501 11.995 8.00001 12.1C7.86501 12 7.73001 11.895 7.59501 11.7795C7.52201 11.721 7.44901 11.654 7.37601 11.594C7.45501 11.412 7.50001 11.2115 7.50001 11C7.50001 10.173 6.82701 9.5 6.00001 9.5C5.75601 9.5 5.52851 9.564 5.32451 9.668C4.92651 9.244 4.54751 8.821 4.21001 8.405C4.10501 8.545 4.00001 8.685 3.91001 8.82C3.91001 8.82 3.90501 8.82 3.90501 8.8255C3.80001 8.965 3.70001 9.11 3.61001 9.25C3.92601 9.6325 4.27201 10.0115 4.63201 10.391C4.54851 10.5775 4.50001 10.7825 4.50001 11C4.50001 11.827 5.17301 12.5 6.00001 12.5C6.24801 12.5 6.47801 12.434 6.68451 12.327C6.70501 12.3435 6.72501 12.363 6.74551 12.3795C6.88051 12.4945 7.02051 12.6045 7.16051 12.7095C7.01001 12.81 6.86501 12.91 6.72001 13ZM14.17 14.17C13.95 14.39 13.61 14.5 13.16 14.5C12.14 14.5 10.7545 13.95 9.27951 13.005C9.13451 12.9105 8.98451 12.815 8.83951 12.71C8.97501 12.605 9.11501 12.4905 9.24951 12.38C9.80451 11.925 10.3545 11.425 10.8895 10.8905C11.424 10.3555 11.9295 9.8055 12.384 9.2455C12.499 9.11 12.609 8.9755 12.714 8.84C12.814 8.985 12.914 9.135 13.004 9.28C13.384 9.8705 13.6995 10.4555 13.9495 11.02C14.595 12.485 14.675 13.66 14.17 14.17Z" fill="#545469"/>
<path d="M8 9.5C8.827 9.5 9.5 8.827 9.5 8C9.5 7.173 8.827 6.5 8 6.5C7.173 6.5 6.5 7.173 6.5 8C6.5 8.827 7.173 9.5 8 9.5ZM8 7.5C8.2755 7.5 8.5 7.7245 8.5 8C8.5 8.2755 8.2755 8.5 8 8.5C7.7245 8.5 7.5 8.2755 7.5 8C7.5 7.7245 7.7245 7.5 8 7.5Z" fill="#545469"/>
</g>
<defs>
<clipPath id="clip0_470_110">
<rect width="16" height="16" fill="white"/>
</clipPath>
</defs>
</svg>
