<svg width="16" height="16" viewBox="0 0 16 16" fill="none" xmlns="http://www.w3.org/2000/svg">
<g clip-path="url(#clip0_470_123)">
<path d="M13.86 7.83001C15.77 5.92001 16.05 3.08501 14.485 1.51501C12.915 -0.0549937 10.085 0.225006 8.17 2.14001C7.195 3.11501 6.6 4.38501 6.535 5.63001L5.595 8.45501L0.905 13.145C0.365 13.685 0.365 14.56 0.905 15.1C1.175 15.37 1.53 15.505 1.88 15.505C2.23 15.505 2.585 15.37 2.855 15.1L7.545 10.41L10.37 9.47001C11.615 9.40501 12.885 8.81001 13.86 7.83501V7.83001ZM2.15 14.39C2 14.54 1.76 14.54 1.61 14.39C1.46 14.24 1.46 14 1.61 13.85L2.295 13.165L2.835 13.705L2.15 14.39ZM13.155 7.12501C13.1 7.18001 13.04 7.23001 12.985 7.28501L11.21 5.51001L12.37 4.35001L14.01 5.99001C13.795 6.39501 13.51 6.78001 13.16 7.13001L13.155 7.12501ZM14.4 4.96501L13.075 3.64001L14.09 2.62501C14.51 3.27501 14.605 4.11501 14.4 4.96501ZM11.895 1.50001C12.44 1.50001 12.955 1.63501 13.385 1.91501L12.365 2.93501L11.04 1.61001C11.33 1.54001 11.615 1.50001 11.895 1.50001ZM8.88 2.85501C9.23 2.50501 9.62 2.22001 10.02 2.00501L11.66 3.64501L10.5 4.80501L8.725 3.03001C8.775 2.97001 8.83 2.91501 8.885 2.86001L8.88 2.85501ZM8.12 3.84001L9.795 5.51501L8.66 6.65001L7.555 5.54501C7.61 4.96501 7.805 4.38501 8.12 3.84501V3.84001ZM3.54 12.995L3 12.455L6.03 9.42501L6.57 9.96501L3.54 12.995ZM7.41 9.39501L6.6 8.58501L7.245 6.64501L9.345 8.74501L7.405 9.39001L7.41 9.39501ZM10.495 6.21001L12.17 7.88501C11.63 8.20001 11.045 8.39501 10.47 8.45001L9.365 7.34501L10.5 6.21001H10.495Z" fill="#545469"/>
<path d="M12 9.5C10.345 9.5 9 10.845 9 12.5C9 14.155 10.345 15.5 12 15.5C13.655 15.5 15 14.155 15 12.5C15 10.845 13.655 9.5 12 9.5ZM10.37 11.35C10.615 11.685 10.75 12.085 10.75 12.5C10.75 12.915 10.61 13.315 10.37 13.65C10.14 13.325 10 12.93 10 12.5C10 12.07 10.14 11.675 10.37 11.35ZM11.14 14.3C11.535 13.785 11.75 13.155 11.75 12.5C11.75 11.845 11.53 11.22 11.14 10.7C11.4 10.575 11.69 10.5 12 10.5C12.31 10.5 12.6 10.575 12.86 10.7C12.465 11.215 12.25 11.845 12.25 12.5C12.25 13.155 12.47 13.78 12.86 14.3C12.6 14.425 12.31 14.5 12 14.5C11.69 14.5 11.4 14.425 11.14 14.3ZM13.63 13.655C13.385 13.32 13.25 12.92 13.25 12.505C13.25 12.09 13.39 11.69 13.63 11.355C13.86 11.68 14 12.075 14 12.505C14 12.935 13.86 13.33 13.63 13.655Z" fill="#545469"/>
</g>
<defs>
<clipPath id="clip0_470_123">
<rect width="16" height="16" fill="white"/>
</clipPath>
</defs>
</svg>
